<svg width="68" height="66" viewBox="0 0 68 66" fill="none" xmlns="http://www.w3.org/2000/svg">
<path d="M63.8367 3.57319H63.2976V1.41665C63.2976 1.13067 63.184 0.856412 62.9818 0.654197C62.7795 0.451982 62.5053 0.338379 62.2193 0.338379H57.9062C57.6203 0.338379 57.346 0.451982 57.1438 0.654197C56.9416 0.856412 56.828 1.13067 56.828 1.41665V3.57319H50.3583V1.41665C50.3583 1.13067 50.2447 0.856412 50.0425 0.654197C49.8403 0.451982 49.566 0.338379 49.2801 0.338379H44.967C44.681 0.338379 44.4068 0.451982 44.2045 0.654197C44.0023 0.856412 43.8887 1.13067 43.8887 1.41665V3.57319H37.4191V1.41665C37.4191 1.13067 37.3055 0.856412 37.1033 0.654197C36.9011 0.451982 36.6268 0.338379 36.3408 0.338379H32.0278C31.7418 0.338379 31.4675 0.451982 31.2653 0.654197C31.0631 0.856412 30.9495 1.13067 30.9495 1.41665V3.57319H24.4799V1.41665C24.4799 1.13067 24.3663 0.856412 24.1641 0.654197C23.9618 0.451982 23.6876 0.338379 23.4016 0.338379H19.0885C18.8025 0.338379 18.5283 0.451982 18.3261 0.654197C18.1239 0.856412 18.0103 1.13067 18.0103 1.41665V3.57319H11.5406V1.41665C11.5406 1.13067 11.427 0.856412 11.2248 0.654197C11.0226 0.451982 10.7483 0.338379 10.4624 0.338379H6.14928C5.86331 0.338379 5.58905 0.451982 5.38683 0.654197C5.18462 0.856412 5.07101 1.13067 5.07101 1.41665V3.57319H4.53188C3.53131 3.57429 2.57203 3.97226 1.86452 4.67977C1.15701 5.38728 0.759041 6.34656 0.757935 7.34713V54.791C0.759041 55.7916 1.15701 56.7509 1.86452 57.4584C2.57203 58.1659 3.53131 58.5638 4.53188 58.5649H18.3539C22.5798 62.7116 28.2638 65.0346 34.1843 65.0346C40.1047 65.0346 45.7888 62.7116 50.0146 58.5649H63.8367C64.8373 58.5638 65.7966 58.1659 66.5041 57.4584C67.2116 56.7509 67.6096 55.7916 67.6107 54.791V7.34713C67.6096 6.34656 67.2116 5.38728 66.5041 4.67977C65.7966 3.97226 64.8373 3.57429 63.8367 3.57319ZM58.9845 2.49492H61.141V6.808H58.9845V2.49492ZM46.0453 2.49492H48.2018V6.808H46.0453V2.49492ZM33.106 2.49492H35.2626V6.808H33.106V2.49492ZM20.1668 2.49492H22.3233V6.808H20.1668V2.49492ZM7.22755 2.49492H9.38409V6.808H7.22755V2.49492ZM34.1843 62.878C22.8881 62.878 13.6972 53.6871 13.6972 42.3909C13.6972 31.0947 22.8881 21.9038 34.1843 21.9038C45.4805 21.9038 54.6714 31.0947 54.6714 42.3909C54.6714 53.6871 45.4805 62.878 34.1843 62.878ZM65.4541 54.791C65.4538 55.2199 65.2832 55.631 64.98 55.9343C64.6768 56.2375 64.2656 56.4081 63.8367 56.4084H51.9555C55.1154 52.4199 56.8327 47.4795 56.828 42.3909C56.828 29.9045 46.6707 19.7472 34.1843 19.7472C21.6979 19.7472 11.5406 29.9045 11.5406 42.3909C11.5359 47.4795 13.2532 52.4199 16.4131 56.4084H4.53188C4.10303 56.4081 3.69184 56.2375 3.3886 55.9343C3.08535 55.631 2.91483 55.2199 2.91447 54.791V12.1993H65.4541V54.791ZM65.4541 10.0428H2.91447V7.34713C2.91483 6.91828 3.08535 6.50709 3.3886 6.20385C3.69184 5.9006 4.10303 5.73008 4.53188 5.72973H5.07101V7.88627C5.07101 8.17224 5.18462 8.4465 5.38683 8.64872C5.58905 8.85093 5.86331 8.96454 6.14928 8.96454H10.4624C10.7483 8.96454 11.0226 8.85093 11.2248 8.64872C11.427 8.4465 11.5406 8.17224 11.5406 7.88627V5.72973H18.0103V7.88627C18.0103 8.17224 18.1239 8.4465 18.3261 8.64872C18.5283 8.85093 18.8025 8.96454 19.0885 8.96454H23.4016C23.6876 8.96454 23.9618 8.85093 24.1641 8.64872C24.3663 8.4465 24.4799 8.17224 24.4799 7.88627V5.72973H30.9495V7.88627C30.9495 8.17224 31.0631 8.4465 31.2653 8.64872C31.4675 8.85093 31.7418 8.96454 32.0278 8.96454H36.3408C36.6268 8.96454 36.9011 8.85093 37.1033 8.64872C37.3055 8.4465 37.4191 8.17224 37.4191 7.88627V5.72973H43.8887V7.88627C43.8887 8.17224 44.0023 8.4465 44.2045 8.64872C44.4068 8.85093 44.681 8.96454 44.967 8.96454H49.2801C49.566 8.96454 49.8403 8.85093 50.0425 8.64872C50.2447 8.4465 50.3583 8.17224 50.3583 7.88627V5.72973H56.828V7.88627C56.828 8.17224 56.9416 8.4465 57.1438 8.64872C57.346 8.85093 57.6203 8.96454 57.9062 8.96454H62.2193C62.5053 8.96454 62.7795 8.85093 62.9818 8.64872C63.184 8.4465 63.2976 8.17224 63.2976 7.88627V5.72973H63.8367C64.2656 5.73008 64.6768 5.9006 64.98 6.20385C65.2832 6.50709 65.4538 6.91828 65.4541 7.34713V10.0428Z" fill="black"/>
</svg>
