<svg xmlns="http://www.w3.org/2000/svg" xmlns:xlink="http://www.w3.org/1999/xlink" viewBox="0 0 360 100"><defs><style>.cls-1{fill:none;stroke-width:4px;stroke:url(#linear-gradient);}.cls-1,.cls-17,.cls-18,.cls-2,.cls-3,.cls-4,.cls-5{stroke-miterlimit:10;}.cls-2,.cls-4{stroke:#7f3f98;}.cls-2{fill:url(#linear-gradient-2);}.cls-10,.cls-18,.cls-3,.cls-5,.cls-6{fill:#7f3f98;}.cls-3{stroke:url(#linear-gradient-3);}.cls-4{fill:url(#linear-gradient-4);}.cls-5{stroke:url(#linear-gradient-5);}.cls-6{font-size:36px;}.cls-10,.cls-16,.cls-6{font-family:Cunia;}.cls-7{fill:#000;}.cls-16,.cls-8{fill:#fbb040;}.cls-9{letter-spacing:-0.02em;}.cls-10{font-size:16px;}.cls-11{letter-spacing:-0.03em;}.cls-12{letter-spacing:-0.01em;}.cls-13{letter-spacing:-0.02em;}.cls-14,.cls-16{font-size:14px;}.cls-14{font-family:Montserrat-Bold, Montserrat;font-weight:700;}.cls-15{fill:url(#linear-gradient-6);}.cls-17,.cls-18{stroke-width:3px;}.cls-17{fill:url(#linear-gradient-26);stroke:url(#linear-gradient-27);}.cls-18{stroke:url(#Orange_Yellow);}</style><linearGradient id="linear-gradient" x1="32.04" y1="93.42" x2="67.2" y2="6.4" gradientUnits="userSpaceOnUse"><stop offset="0" stop-color="#7f3f98"/><stop offset="0.08" stop-color="#824395"/><stop offset="0.16" stop-color="#8b4e8c"/><stop offset="0.24" stop-color="#9b627c"/><stop offset="0.32" stop-color="#b17d66"/><stop offset="0.4" stop-color="#cda049"/><stop offset="0.47" stop-color="#efca27"/><stop offset="0.5" stop-color="#ffde17"/><stop offset="0.53" stop-color="#f3cf23"/><stop offset="0.6" stop-color="#d0a446"/><stop offset="0.68" stop-color="#b37f64"/><stop offset="0.76" stop-color="#9c637b"/><stop offset="0.84" stop-color="#8c4f8b"/><stop offset="0.92" stop-color="#824395"/><stop offset="1" stop-color="#7f3f98"/></linearGradient><linearGradient id="linear-gradient-2" x1="34.98" y1="57.08" x2="50.24" y2="19.3" xlink:href="#linear-gradient"/><linearGradient id="linear-gradient-3" x1="36.69" y1="49.6" x2="44.34" y2="30.66" xlink:href="#linear-gradient"/><linearGradient id="linear-gradient-4" x1="48.34" y1="80.79" x2="63.8" y2="42.51" xlink:href="#linear-gradient"/><linearGradient id="linear-gradient-5" x1="54.9" y1="68.31" x2="62.22" y2="50.19" xlink:href="#linear-gradient"/><linearGradient id="linear-gradient-6" x1="116.2" y1="71.51" x2="342.88" y2="71.51" xlink:href="#linear-gradient"/><linearGradient id="linear-gradient-26" x1="102.09" y1="55.93" x2="207.35" y2="55.93" gradientUnits="userSpaceOnUse"><stop offset="0" stop-color="#7f3f98"/><stop offset="0.1" stop-color="#814295"/><stop offset="0.18" stop-color="#894c8e"/><stop offset="0.25" stop-color="#975c80"/><stop offset="0.32" stop-color="#a9746d"/><stop offset="0.39" stop-color="#c29255"/><stop offset="0.45" stop-color="#dfb637"/><stop offset="0.5" stop-color="#ffde17"/><stop offset="0.52" stop-color="#f0cb26"/><stop offset="0.57" stop-color="#d2a644"/><stop offset="0.61" stop-color="#b8865e"/><stop offset="0.67" stop-color="#a36c73"/><stop offset="0.72" stop-color="#935884"/><stop offset="0.79" stop-color="#884a8f"/><stop offset="0.87" stop-color="#814196"/><stop offset="1" stop-color="#7f3f98"/></linearGradient><linearGradient id="linear-gradient-27" x1="207.35" y1="55.93" x2="102.09" y2="55.93" gradientUnits="userSpaceOnUse"><stop offset="0" stop-color="#fff33b"/><stop offset="0.04" stop-color="#fee72e"/><stop offset="0.12" stop-color="#fed51b"/><stop offset="0.2" stop-color="#fdca10"/><stop offset="0.28" stop-color="#fdc70c"/><stop offset="0.67" stop-color="#f3903f"/><stop offset="0.89" stop-color="#ed683c"/><stop offset="1" stop-color="#e93e3a"/></linearGradient><linearGradient id="Orange_Yellow" x1="249.41" y1="55.93" x2="356.96" y2="55.93" xlink:href="#linear-gradient-27"/></defs><g id="isotipo"><circle class="cls-1" cx="49.62" cy="49.91" r="44.91"/><polygon class="cls-2" points="23.53 37.35 23.53 46 51.68 63.82 51.68 53.23 47.18 50.59 46.91 56.32 28.65 44.94 28.65 39.91 46.73 28.35 46.73 33.73 51.68 30.65 51.68 19.88 23.53 37.35"/><polygon class="cls-3" points="31.65 40.09 44.35 31.79 44.35 37.27 36.15 41.85 44.35 46.97 44.35 52 31.65 44.15 31.65 40.09"/><polygon class="cls-4" points="47.18 46.97 51.68 49.91 51.68 43.23 69.77 54.91 69.77 60.12 51.68 71.77 51.68 66.21 47.18 70.62 47.18 80.32 74.53 63.82 74.53 52 47.18 35.79 47.18 46.97"/><polygon class="cls-5" points="54.85 47.94 67.03 56.02 67.03 59.41 54.85 67.18 54.85 62.63 62.35 58.06 54.85 52.27 54.85 47.94"/></g><g id="Layer_3" data-name="Layer 3"><text class="cls-6" transform="translate(101.29 45.35)">TEAM<tspan class="cls-7" x="101.81" y="0"> </tspan><tspan class="cls-8" x="109.37" y="0">-</tspan><tspan class="cls-7" x="126.5" y="0"> </tspan><tspan x="134.06" y="0">REAC</tspan><tspan class="cls-9" x="233.53" y="0">T</tspan></text><text class="cls-10" transform="translate(115.46 77.11)">COMMUNIT<tspan class="cls-11" x="87.94" y="0">Y</tspan><tspan x="98.43" y="0" xml:space="preserve"> FE</tspan><tspan class="cls-12" x="122" y="0">S</tspan><tspan class="cls-13" x="132.54" y="0">T</tspan><tspan x="142.33" y="0" xml:space="preserve"> AND CODE</tspan><tspan class="cls-14" x="228.13" y="0"> </tspan></text><path class="cls-15" d="M121.19,77.27a5.35,5.35,0,0,1-3.59-1.11,4.23,4.23,0,0,1-1.39-3.23c0-.29,0-.76,0-1.41s0-1.14,0-1.44a4.27,4.27,0,0,1,1.4-3.21,5.35,5.35,0,0,1,3.58-1.12,6.62,6.62,0,0,1,2.55.46,4.22,4.22,0,0,1,1.79,1.34,3.59,3.59,0,0,1,.68,2.08.3.3,0,0,1-.1.24.33.33,0,0,1-.25.1h-2.27a.5.5,0,0,1-.33-.09.72.72,0,0,1-.18-.33,1.92,1.92,0,0,0-.68-1.09,2.11,2.11,0,0,0-1.21-.31c-1.21,0-1.83.67-1.87,2,0,.29,0,.73,0,1.33s0,1.05,0,1.36c0,1.34.66,2,1.87,2a2.16,2.16,0,0,0,1.21-.32,1.89,1.89,0,0,0,.68-1.09.63.63,0,0,1,.17-.33.55.55,0,0,1,.34-.09h2.27a.33.33,0,0,1,.25.1.3.3,0,0,1,.1.24,3.59,3.59,0,0,1-.68,2.08,4.22,4.22,0,0,1-1.79,1.34A6.62,6.62,0,0,1,121.19,77.27Z"/><path class="cls-15" d="M132.49,77.27a5.39,5.39,0,0,1-3.59-1.11,4.22,4.22,0,0,1-1.39-3.25c0-.29,0-.75,0-1.37s0-1.08,0-1.39a4.23,4.23,0,0,1,1.4-3.26,6.16,6.16,0,0,1,7.14,0,4.26,4.26,0,0,1,1.4,3.26c0,.62,0,1.08,0,1.39s0,.78,0,1.37a4.26,4.26,0,0,1-1.39,3.25A5.33,5.33,0,0,1,132.49,77.27Zm0-2.4a1.76,1.76,0,0,0,1.32-.51,2.21,2.21,0,0,0,.53-1.54c0-.62,0-1.06,0-1.33s0-.7,0-1.3a2.23,2.23,0,0,0-.53-1.54,1.75,1.75,0,0,0-1.32-.5,1.79,1.79,0,0,0-1.35.5,2.23,2.23,0,0,0-.53,1.54c0,.3,0,.73,0,1.3s0,1,0,1.33a2.21,2.21,0,0,0,.53,1.54A1.79,1.79,0,0,0,132.49,74.87Z"/><path class="cls-15" d="M150,66a.39.39,0,0,1,.28.1.38.38,0,0,1,.12.3V76.72a.32.32,0,0,1-.12.27.36.36,0,0,1-.28.12h-2a.39.39,0,0,1-.28-.12.37.37,0,0,1-.12-.27V71.25s0-.08-.08-.08a.11.11,0,0,0-.08,0l-1.55,2.87a.62.62,0,0,1-.56.36h-.86a.65.65,0,0,1-.56-.36l-1.54-2.85a.1.1,0,0,0-.08,0,.07.07,0,0,0-.08.08v5.47a.32.32,0,0,1-.13.27.36.36,0,0,1-.28.12h-2a.38.38,0,0,1-.29-.12.34.34,0,0,1-.11-.27V67.3a1.22,1.22,0,0,1,.14-.59,1.48,1.48,0,0,1,.36-.42,1.31,1.31,0,0,1,.43-.24,1.23,1.23,0,0,1,.38-.08h.9a.61.61,0,0,1,.57.34l2.66,4.78a.08.08,0,0,0,.08,0,.1.1,0,0,0,.08,0l2.67-4.78a.62.62,0,0,1,.58-.34Z"/><path class="cls-15" d="M163.3,66a.36.36,0,0,1,.4.4V76.72a.34.34,0,0,1-.11.27.38.38,0,0,1-.29.12h-2A.38.38,0,0,1,161,77a.37.37,0,0,1-.12-.27V71.25a.07.07,0,0,0-.08-.08.11.11,0,0,0-.08,0l-1.55,2.87a.63.63,0,0,1-.56.36h-.87a.66.66,0,0,1-.56-.36l-1.53-2.85a.1.1,0,0,0-.08,0c-.06,0-.08,0-.08.08v5.47a.35.35,0,0,1-.13.27.38.38,0,0,1-.29.12h-2a.36.36,0,0,1-.28-.12.31.31,0,0,1-.11-.27V67.3a1.12,1.12,0,0,1,.14-.59,1.45,1.45,0,0,1,.35-.42,1.42,1.42,0,0,1,.43-.24A1.29,1.29,0,0,1,154,66h.89a.62.62,0,0,1,.58.34l2.65,4.78a.09.09,0,0,0,.09,0s.05,0,.08,0l2.67-4.78a.61.61,0,0,1,.57-.34Z"/><path class="cls-15" d="M165.81,72.87V67.33a1.25,1.25,0,0,1,.14-.59,1.32,1.32,0,0,1,.34-.43,1.34,1.34,0,0,1,.44-.27,1.45,1.45,0,0,1,.48-.09h1.2a.4.4,0,0,1,.29.12.36.36,0,0,1,.12.28v6.48a2.19,2.19,0,0,0,.43,1.44,2.06,2.06,0,0,0,2.76,0,2.19,2.19,0,0,0,.43-1.44V67.31a1.25,1.25,0,0,1,.13-.59,1.44,1.44,0,0,1,1.26-.77H175a.41.41,0,0,1,.3.12.36.36,0,0,1,.11.28v6.52a5.09,5.09,0,0,1-.34,2,3.56,3.56,0,0,1-1,1.36,4.19,4.19,0,0,1-1.51.8,7.12,7.12,0,0,1-2,.26,6.76,6.76,0,0,1-2-.26,4,4,0,0,1-1.53-.79,3.54,3.54,0,0,1-1-1.37A4.9,4.9,0,0,1,165.81,72.87Z"/><path class="cls-15" d="M177.54,76.66V67.3a1.35,1.35,0,0,1,.4-1,1.31,1.31,0,0,1,1-.41h.53a1.41,1.41,0,0,1,.42.07,1.07,1.07,0,0,1,.49.42l1.7,2.66.73,1.14c.17.29.34.55.5.79l.4.61.19.31s0,0,.07,0a.07.07,0,0,0,.08-.08V67.3a1.28,1.28,0,0,1,.43-1,1.4,1.4,0,0,1,1-.38h1a.38.38,0,0,1,.29.11.5.5,0,0,1,.11.3V76.64a.5.5,0,0,1-.11.29.39.39,0,0,1-.29.13h-1.81a.6.6,0,0,1-.54-.31l-1.73-2.64L181.65,73c-.18-.29-.35-.55-.51-.79l-.4-.61-.19-.29a.15.15,0,0,0-.08,0,.07.07,0,0,0-.08.08v5.33a.36.36,0,0,1-.13.29.44.44,0,0,1-.29.11h-2a.36.36,0,0,1-.27-.13A.38.38,0,0,1,177.54,76.66Z"/><path class="cls-15" d="M189.06,76.67V67.31a1.33,1.33,0,0,1,.42-1,1.36,1.36,0,0,1,1-.39h1.28A.37.37,0,0,1,192,66a.39.39,0,0,1,.11.29V76.67A.37.37,0,0,1,192,77a.34.34,0,0,1-.29.12h-2.27a.41.41,0,0,1-.4-.4Z"/><path class="cls-15" d="M202.66,65.91a.41.41,0,0,1,.3.12.38.38,0,0,1,.12.28V68.1a.38.38,0,0,1-.12.29.44.44,0,0,1-.3.11H199a.92.92,0,0,1,.63.25.77.77,0,0,1,.28.58v7.33a.3.3,0,0,1-.13.27.4.4,0,0,1-.29.11h-2.22a.42.42,0,0,1-.29-.11.32.32,0,0,1-.13-.27V69a.42.42,0,0,0-.14-.35.48.48,0,0,0-.34-.13H194a.43.43,0,0,1-.28-.11.36.36,0,0,1-.13-.29v-.82a1.31,1.31,0,0,1,.12-.56,1.38,1.38,0,0,1,.32-.44,1.48,1.48,0,0,1,.45-.28,1.43,1.43,0,0,1,.5-.09Z"/><path class="cls-15" d="M207.36,76.69V73.84a2.37,2.37,0,0,0-.06-.52,2,2,0,0,0-.16-.44l-3.46-6.43a.34.34,0,0,1,0-.18.34.34,0,0,1,.33-.33h2.1a.69.69,0,0,1,.34.09.42.42,0,0,1,.23.26c.39.69.74,1.32,1,1.87l.44.81c.12.2.22.38.31.55s.17.32.24.43l.12.21a.1.1,0,0,0,.08,0,.06.06,0,0,0,.06,0l.12-.21.26-.46.34-.62.39-.71c.31-.55.65-1.18,1-1.87a.64.64,0,0,1,.57-.35h2.1a.34.34,0,0,1,.33.33.34.34,0,0,1,0,.18c-.62,1.15-1.18,2.19-1.68,3.1-.3.57-.54,1-.72,1.34l-.48.91c-.15.28-.28.53-.39.72s-.17.31-.19.35a2,2,0,0,0-.17.45,2.79,2.79,0,0,0,0,.47v2.9a.38.38,0,0,1-.12.3.4.4,0,0,1-.3.1h-2.18a.39.39,0,0,1-.28-.11A.38.38,0,0,1,207.36,76.69Z"/><path class="cls-15" d="M218.37,76.66V67.3a1.31,1.31,0,0,1,.12-.56,1.58,1.58,0,0,1,.31-.44,1.51,1.51,0,0,1,.45-.29,1.32,1.32,0,0,1,.51-.1h6.42a.42.42,0,0,1,.29.12.45.45,0,0,1,.13.29V68a.32.32,0,0,1-.13.27.38.38,0,0,1-.29.11h-5.76a.89.89,0,0,1,.62.26.83.83,0,0,1,.26.61v1.36h3.84a.37.37,0,0,1,.42.41v1.68a.38.38,0,0,1-.12.3.4.4,0,0,1-.3.1h-4.72a.92.92,0,0,1,.6.24.77.77,0,0,1,.28.61v2.69a.42.42,0,0,1-.11.29.38.38,0,0,1-.29.11h-2.13a.38.38,0,0,1-.4-.4Z"/><path class="cls-15" d="M228.29,76.67V67.31a1.33,1.33,0,0,1,.42-1,1.36,1.36,0,0,1,1-.39h6.53a.41.41,0,0,1,.42.42v1.58a.34.34,0,0,1-.11.27.41.41,0,0,1-.31.12h-5.9a.83.83,0,0,1,.63.27.89.89,0,0,1,.25.59v.67a.56.56,0,0,0,.12.34.41.41,0,0,0,.36.16h3.49a.41.41,0,0,1,.41.41v1.44a.41.41,0,0,1-.12.3.4.4,0,0,1-.29.12h-4.85a.85.85,0,0,1,.62.26.79.79,0,0,1,.26.57v.75a.52.52,0,0,0,.13.34.41.41,0,0,0,.35.16h4.67a.37.37,0,0,1,.42.42v1.56a.38.38,0,0,1-.12.3.44.44,0,0,1-.3.1h-7.65a.41.41,0,0,1-.4-.4Z"/><path class="cls-15" d="M247.63,73.71a2.89,2.89,0,0,1-.45,1.65A3.56,3.56,0,0,1,246,76.45a5,5,0,0,1-1.57.6,8.14,8.14,0,0,1-1.68.18,8.39,8.39,0,0,1-1.62-.16,5.26,5.26,0,0,1-1.55-.53,3.51,3.51,0,0,1-1.17-1,2.63,2.63,0,0,1-.52-1.53.3.3,0,0,1,.1-.24.33.33,0,0,1,.25-.1h2.13l.16,0,.14,0A1,1,0,0,1,241,74a1.4,1.4,0,0,0,.76.7,3.13,3.13,0,0,0,1.05.18l.55,0a2.14,2.14,0,0,0,.58-.14,1.31,1.31,0,0,0,.46-.3.75.75,0,0,0,.19-.52.69.69,0,0,0-.32-.63,3.43,3.43,0,0,0-.68-.3c-.18-.06-.39-.12-.64-.18l-.87-.19a10.69,10.69,0,0,1-1.43-.37,4.51,4.51,0,0,1-1.22-.62,3,3,0,0,1-.87-1,2.85,2.85,0,0,1-.32-1.43,2.91,2.91,0,0,1,.58-1.82,3.8,3.8,0,0,1,1.53-1.16,6.32,6.32,0,0,1,2.35-.41,6.87,6.87,0,0,1,1.09.09,5.31,5.31,0,0,1,1.11.28,4.55,4.55,0,0,1,1,.53,3.75,3.75,0,0,1,.8.79,2.63,2.63,0,0,1,.59,1.43.36.36,0,0,1-.1.24.33.33,0,0,1-.23.11h-2.25a.6.6,0,0,1-.52-.29,1,1,0,0,0-.5-.57,2.13,2.13,0,0,0-1-.23l-.49,0a1.46,1.46,0,0,0-.46.15.92.92,0,0,0-.33.29.8.8,0,0,0-.13.48.81.81,0,0,0,.48.72,7.71,7.71,0,0,0,1.79.52c.5.1,1,.22,1.5.35a4.51,4.51,0,0,1,1.32.57,2.94,2.94,0,0,1,.94,1A2.91,2.91,0,0,1,247.63,73.71Z"/><path class="cls-15" d="M257.43,65.91a.4.4,0,0,1,.29.12.38.38,0,0,1,.12.28V68.1a.38.38,0,0,1-.12.29.44.44,0,0,1-.29.11h-3.71a.92.92,0,0,1,.63.25.8.8,0,0,1,.28.58v7.33a.32.32,0,0,1-.13.27.42.42,0,0,1-.29.11H252a.4.4,0,0,1-.29-.11.3.3,0,0,1-.13-.27V69a.45.45,0,0,0-.14-.35.48.48,0,0,0-.34-.13h-2.32a.48.48,0,0,1-.29-.11.38.38,0,0,1-.12-.29v-.82a1.31,1.31,0,0,1,.12-.56,1.38,1.38,0,0,1,.32-.44,1.57,1.57,0,0,1,.44-.28,1.52,1.52,0,0,1,.51-.09Z"/><path class="cls-15" d="M261.38,77a.47.47,0,0,1-.1-.24.37.37,0,0,1,0-.14L265,66.42a.65.65,0,0,1,.64-.47h2.48a.65.65,0,0,1,.64.47l3.71,10.21a.37.37,0,0,1,0,.14.34.34,0,0,1-.1.23.34.34,0,0,1-.24.11H270.1a.52.52,0,0,1-.54-.36l-.84-2.25a9.76,9.76,0,0,1-1.16.37c-.4.09-.78.16-1.15.21s-.71.08-1,.1l-.83,0h-.61a.69.69,0,0,1,.47.32.65.65,0,0,1,0,.64l-.22.6a.55.55,0,0,1-.55.36h-2.06A.42.42,0,0,1,261.38,77Zm4.06-4.1a7.83,7.83,0,0,0,.93-.11,7.49,7.49,0,0,0,.87-.18,3.94,3.94,0,0,0,.88-.35l-1.24-3.52Z"/><path class="cls-15" d="M273.78,76.66V67.3a1.35,1.35,0,0,1,.4-1,1.31,1.31,0,0,1,1-.41h.53a1.41,1.41,0,0,1,.42.07,1.12,1.12,0,0,1,.49.42l1.7,2.66L279,70.2c.17.29.34.55.5.79l.4.61.19.31s0,0,.06,0,.08,0,.08-.08V67.3a1.29,1.29,0,0,1,.44-1,1.4,1.4,0,0,1,1-.38h1A.39.39,0,0,1,283,66a.5.5,0,0,1,.11.3V76.64a.5.5,0,0,1-.11.29.41.41,0,0,1-.29.13H280.9a.61.61,0,0,1-.55-.31l-1.72-2.64L277.89,73c-.18-.29-.35-.55-.51-.79s-.3-.44-.4-.61l-.19-.29s-.06,0-.08,0-.08,0-.08.08v5.33a.39.39,0,0,1-.13.29.46.46,0,0,1-.29.11h-2a.35.35,0,0,1-.27-.13A.38.38,0,0,1,273.78,76.66Z"/><path class="cls-15" d="M285.3,76.71V67.35a1.3,1.3,0,0,1,.42-1,1.38,1.38,0,0,1,1-.4h3.2a7.72,7.72,0,0,1,2,.25,4.3,4.3,0,0,1,1.57.79,3.68,3.68,0,0,1,1.06,1.36,5.2,5.2,0,0,1,.42,2c0,.15,0,.32,0,.53v1.37c0,.2,0,.38,0,.53q-.15,4.37-4.95,4.37H285.7a.38.38,0,0,1-.29-.12A.39.39,0,0,1,285.3,76.71Zm4.59-2a2,2,0,0,0,1.5-.5,2.27,2.27,0,0,0,.49-1.51c0-.15,0-.33,0-.52s0-.42,0-.67,0-.46,0-.66,0-.37,0-.52a1.83,1.83,0,0,0-2.07-2h-2.4a.88.88,0,0,1,.63.26.82.82,0,0,1,.25.57v5.06a.5.5,0,0,0,.14.35.49.49,0,0,0,.36.14Z"/><path class="cls-15" d="M304.8,77.27a5.37,5.37,0,0,1-3.59-1.11,4.19,4.19,0,0,1-1.38-3.23c0-.29,0-.76,0-1.41s0-1.14,0-1.44a4.23,4.23,0,0,1,1.4-3.21,5.32,5.32,0,0,1,3.57-1.12,6.71,6.71,0,0,1,2.56.46,4.19,4.19,0,0,1,1.78,1.34,3.53,3.53,0,0,1,.69,2.08.3.3,0,0,1-.11.24.33.33,0,0,1-.24.1H307.2a.45.45,0,0,1-.32-.09.72.72,0,0,1-.19-.33,1.87,1.87,0,0,0-.68-1.09,2.09,2.09,0,0,0-1.21-.31c-1.2,0-1.83.67-1.87,2,0,.29,0,.73,0,1.33s0,1.05,0,1.36c0,1.34.67,2,1.87,2a2.13,2.13,0,0,0,1.21-.32,1.84,1.84,0,0,0,.68-1.09.57.57,0,0,1,.18-.33.5.5,0,0,1,.33-.09h2.28a.33.33,0,0,1,.24.1.3.3,0,0,1,.11.24,3.53,3.53,0,0,1-.69,2.08,4.19,4.19,0,0,1-1.78,1.34A6.71,6.71,0,0,1,304.8,77.27Z"/><path class="cls-15" d="M316.1,77.27a5.39,5.39,0,0,1-3.59-1.11,4.26,4.26,0,0,1-1.39-3.25c0-.29,0-.75,0-1.37s0-1.08,0-1.39a4.26,4.26,0,0,1,1.4-3.26,6.16,6.16,0,0,1,7.14,0,4.23,4.23,0,0,1,1.4,3.26c0,.62,0,1.08,0,1.39s0,.78,0,1.37a4.22,4.22,0,0,1-1.39,3.25A5.32,5.32,0,0,1,316.1,77.27Zm0-2.4a1.78,1.78,0,0,0,1.33-.51,2.26,2.26,0,0,0,.53-1.54c0-.62,0-1.06,0-1.33s0-.7,0-1.3a2.27,2.27,0,0,0-.53-1.54,1.77,1.77,0,0,0-1.33-.5,1.8,1.8,0,0,0-1.35.5,2.22,2.22,0,0,0-.52,1.54c0,.3,0,.73,0,1.3s0,1,0,1.33a2.21,2.21,0,0,0,.52,1.54A1.81,1.81,0,0,0,316.1,74.87Z"/><path class="cls-15" d="M322.9,76.71V67.35a1.3,1.3,0,0,1,.42-1,1.38,1.38,0,0,1,1-.4h3.2a7.66,7.66,0,0,1,2,.25A4.3,4.3,0,0,1,331,67a3.68,3.68,0,0,1,1.06,1.36,5,5,0,0,1,.42,2c0,.15,0,.32,0,.53v1.37c0,.2,0,.38,0,.53q-.15,4.37-4.95,4.37H323.3A.38.38,0,0,1,323,77,.39.39,0,0,1,322.9,76.71Zm4.59-2a2,2,0,0,0,1.51-.5,2.32,2.32,0,0,0,.48-1.51c0-.15,0-.33,0-.52s0-.42,0-.67,0-.46,0-.66,0-.37,0-.52a1.83,1.83,0,0,0-2.07-2H325a.88.88,0,0,1,.63.26.82.82,0,0,1,.25.57v5.06a.5.5,0,0,0,.14.35.49.49,0,0,0,.36.14Z"/><path class="cls-15" d="M334.42,76.67V67.31a1.36,1.36,0,0,1,.41-1,1.4,1.4,0,0,1,1-.39h6.53a.41.41,0,0,1,.42.42v1.58a.32.32,0,0,1-.12.27.38.38,0,0,1-.3.12h-5.9a.83.83,0,0,1,.63.27.89.89,0,0,1,.25.59v.67a.56.56,0,0,0,.12.34.41.41,0,0,0,.36.16h3.48a.41.41,0,0,1,.3.12.4.4,0,0,1,.12.29v1.44a.41.41,0,0,1-.42.42h-4.84a.85.85,0,0,1,.62.26.79.79,0,0,1,.26.57v.75a.56.56,0,0,0,.12.34.44.44,0,0,0,.36.16h4.67c.28,0,.41.14.41.42v1.56a.38.38,0,0,1-.12.3.43.43,0,0,1-.29.1h-7.65a.41.41,0,0,1-.4-.4Z"/><text class="cls-16" transform="translate(213.99 60.26)">#58</text><line class="cls-17" x1="102.09" y1="55.93" x2="207.35" y2="55.93"/><line class="cls-18" x1="249.41" y1="55.93" x2="356.96" y2="55.93"/></g></svg>